<svg xmlns="http://www.w3.org/2000/svg" xmlns:xlink="http://www.w3.org/1999/xlink" width="1080" zoomAndPan="magnify" viewBox="0 0 810 809.999993" height="1080" preserveAspectRatio="xMidYMid meet" version="1.0"><defs><clipPath id="24434fe7c9"><path d="M 4.554688 61 L 63 61 L 63 160 L 4.554688 160 Z M 4.554688 61 " clip-rule="nonzero"/></clipPath></defs><path fill="#000000" d="M 782.683594 801.757812 C 782.386719 801.757812 782.105469 801.628906 781.917969 801.382812 L 575.609375 532.402344 L 545.378906 532.402344 L 545.378906 800.792969 C 545.378906 801.328125 544.945312 801.757812 544.414062 801.757812 C 543.878906 801.757812 543.453125 801.328125 543.453125 800.792969 L 543.453125 531.441406 C 543.453125 530.910156 543.878906 530.480469 544.414062 530.480469 L 576.078125 530.480469 C 576.382812 530.480469 576.664062 530.621094 576.847656 530.859375 L 783.4375 800.210938 C 783.765625 800.632812 783.679688 801.234375 783.265625 801.558594 C 783.085938 801.695312 782.878906 801.757812 782.683594 801.757812 " fill-opacity="1" fill-rule="nonzero"/><path fill="#8c7bff" d="M 540.433594 667 L 678.800781 667 L 705.292969 701.527344 L 567.25 701.527344 L 540.433594 667 " fill-opacity="1" fill-rule="nonzero"/><path fill="#8c7bff" d="M 601.367188 746.445312 L 739.730469 746.445312 L 766.230469 780.972656 L 628.183594 780.972656 L 601.367188 746.445312 " fill-opacity="1" fill-rule="nonzero"/><path fill="#8c7bff" d="M 480.855469 589.550781 L 619.398438 589.550781 L 645.878906 624.078125 L 507.667969 624.078125 L 480.855469 589.550781 " fill-opacity="1" fill-rule="nonzero"/><path fill="#000000" d="M 643.640625 801.757812 C 643.347656 801.757812 643.066406 801.628906 642.875 801.382812 L 436.566406 532.402344 L 406.335938 532.402344 L 406.335938 800.792969 C 406.335938 801.328125 405.902344 801.757812 405.375 801.757812 C 404.84375 801.757812 404.414062 801.328125 404.414062 800.792969 L 404.414062 531.441406 C 404.414062 530.910156 404.84375 530.480469 405.375 530.480469 L 437.042969 530.480469 C 437.335938 530.480469 437.621094 530.621094 437.804688 530.859375 L 644.402344 800.210938 C 644.726562 800.632812 644.644531 801.234375 644.222656 801.558594 C 644.046875 801.695312 643.84375 801.757812 643.640625 801.757812 " fill-opacity="1" fill-rule="nonzero"/><path fill="#000000" d="M 544.375 532.398438 L 437.097656 532.398438 C 436.5625 532.398438 436.136719 531.972656 436.136719 531.441406 C 436.136719 530.910156 436.5625 530.476562 437.097656 530.476562 L 544.375 530.476562 C 544.90625 530.476562 545.339844 530.910156 545.339844 531.441406 C 545.339844 531.972656 544.90625 532.398438 544.375 532.398438 " fill-opacity="1" fill-rule="nonzero"/><path fill="#955b50" d="M 555.789062 455.378906 L 512.710938 469.582031 L 542.695312 560.503906 L 585.773438 546.296875 L 555.789062 455.378906 " fill-opacity="1" fill-rule="nonzero"/><path fill="#020202" d="M 519.265625 489.472656 L 567.421875 490.660156 L 555.789062 455.378906 L 512.707031 469.582031 L 519.265625 489.472656 " fill-opacity="1" fill-rule="nonzero"/><path fill="#020202" d="M 571.460938 502.898438 L 528.378906 517.097656 L 542.695312 560.503906 L 585.773438 546.296875 L 571.460938 502.898438 " fill-opacity="1" fill-rule="nonzero"/><path fill="#4ada85" d="M 609.945312 557.578125 C 600.890625 544.414062 598.289062 535.480469 586.816406 527.9375 L 585.816406 527.277344 C 582.148438 524.863281 577.265625 527.488281 577.246094 531.882812 L 577.226562 539.234375 C 577.207031 546.382812 570.246094 547.925781 570.167969 547.980469 C 566.144531 549.308594 563.917969 547.480469 554.21875 545.304688 L 551.460938 536.960938 L 542.09375 532.636719 L 533.558594 535.453125 L 530.332031 547.027344 L 504.4375 575.4375 L 469.851562 584.699219 L 462.234375 595.289062 L 474.445312 606.664062 L 527.980469 615.082031 L 562.320312 595.082031 L 609.945312 557.578125 " fill-opacity="1" fill-rule="nonzero"/><path fill="#020202" d="M 620.546875 562.285156 L 609.949219 557.578125 L 558.523438 592.3125 L 518.1875 608.167969 L 487.746094 604.21875 L 462.199219 595.253906 L 460.945312 603.664062 L 463.109375 609.996094 L 480.546875 622.351562 C 480.546875 622.351562 491.558594 624.261719 513.335938 627.507812 C 513.335938 627.507812 549.582031 616.921875 558.667969 613.898438 L 561.964844 607.539062 L 569.4375 605.078125 L 575.820312 608.246094 C 595.71875 601.613281 611.429688 596.503906 611.429688 596.503906 L 630.089844 579.746094 L 620.546875 562.285156 " fill-opacity="1" fill-rule="nonzero"/><path fill="#000000" d="M 596.570312 509.347656 C 593.269531 509.347656 590.5 511.929688 590.304688 515.265625 C 590.144531 517.980469 593.546875 527.703125 595.566406 533.070312 C 598.183594 527.96875 602.6875 518.707031 602.851562 515.988281 C 602.945312 514.3125 602.382812 512.703125 601.265625 511.449219 C 600.148438 510.195312 598.613281 509.453125 596.941406 509.359375 C 596.816406 509.351562 596.695312 509.347656 596.570312 509.347656 Z M 595.292969 537.714844 L 594.53125 535.757812 C 593.878906 534.082031 588.148438 519.234375 588.382812 515.152344 C 588.644531 510.636719 592.542969 507.183594 597.054688 507.4375 C 599.238281 507.5625 601.246094 508.535156 602.703125 510.171875 C 604.160156 511.808594 604.894531 513.914062 604.765625 516.101562 C 604.527344 520.1875 597.121094 534.269531 596.277344 535.859375 L 595.292969 537.714844 " fill-opacity="1" fill-rule="nonzero"/><path fill="#000000" d="M 535.355469 558.125 C 535.269531 558.125 535.171875 558.109375 535.085938 558.085938 L 524.128906 554.855469 C 523.617188 554.707031 523.324219 554.171875 523.476562 553.660156 C 523.625 553.15625 524.15625 552.863281 524.671875 553.011719 L 535.625 556.238281 C 536.136719 556.390625 536.429688 556.925781 536.28125 557.4375 C 536.152344 557.851562 535.769531 558.125 535.355469 558.125 " fill-opacity="1" fill-rule="nonzero"/><path fill="#000000" d="M 529.355469 565.84375 C 529.261719 565.84375 529.171875 565.828125 529.078125 565.804688 L 518.121094 562.578125 C 517.609375 562.425781 517.324219 561.894531 517.46875 561.382812 C 517.617188 560.875 518.15625 560.582031 518.667969 560.730469 L 529.625 563.960938 C 530.132812 564.109375 530.421875 564.644531 530.273438 565.152344 C 530.152344 565.574219 529.769531 565.84375 529.355469 565.84375 " fill-opacity="1" fill-rule="nonzero"/><path fill="#000000" d="M 523.347656 573.5625 C 523.261719 573.5625 523.164062 573.550781 523.078125 573.523438 L 512.117188 570.296875 C 511.609375 570.144531 511.316406 569.613281 511.46875 569.105469 C 511.617188 568.59375 512.152344 568.300781 512.660156 568.453125 L 523.617188 571.679688 C 524.128906 571.828125 524.417969 572.363281 524.273438 572.875 C 524.144531 573.292969 523.761719 573.5625 523.347656 573.5625 " fill-opacity="1" fill-rule="nonzero"/><path fill="#000000" d="M 498.273438 612.230469 C 497.984375 612.230469 497.699219 612.101562 497.511719 611.855469 L 473.945312 581.132812 C 473.621094 580.710938 473.699219 580.109375 474.121094 579.78125 C 474.546875 579.457031 475.148438 579.542969 475.46875 579.960938 L 499.035156 610.683594 C 499.359375 611.105469 499.28125 611.707031 498.855469 612.035156 C 498.683594 612.167969 498.476562 612.230469 498.273438 612.230469 " fill-opacity="1" fill-rule="nonzero"/><path fill="#955b50" d="M 687.96875 510.445312 L 640.144531 518.601562 L 656.707031 615.667969 L 704.535156 607.511719 L 687.96875 510.445312 " fill-opacity="1" fill-rule="nonzero"/><path fill="#020202" d="M 643.726562 539.578125 L 694.8125 550.550781 L 687.96875 510.445312 L 640.140625 518.601562 L 643.726562 539.578125 " fill-opacity="1" fill-rule="nonzero"/><path fill="#020202" d="M 696.410156 559.898438 L 648.585938 568.058594 L 656.707031 615.667969 L 704.535156 607.511719 L 696.410156 559.898438 " fill-opacity="1" fill-rule="nonzero"/><path fill="#4ada85" d="M 704.3125 589.238281 L 705.203125 590.035156 C 715.421875 599.207031 716.667969 608.421875 723.65625 622.789062 L 670.972656 652.777344 L 587.132812 668.164062 L 571.34375 662.179688 L 574.160156 649.445312 L 618.003906 626.160156 L 646.503906 600.5 L 651.417969 589.53125 L 660.277344 588.023438 L 668.894531 593.695312 L 670.375 602.351562 C 679.640625 605.949219 681.574219 608.089844 685.753906 607.378906 C 685.835938 607.335938 692.945312 606.84375 694.03125 599.777344 L 695.148438 592.511719 C 695.824219 588.171875 701.039062 586.304688 704.3125 589.238281 " fill-opacity="1" fill-rule="nonzero"/><path fill="#020202" d="M 571.34375 662.179688 L 598.410156 662.730469 L 667.628906 649.476562 L 723.652344 622.789062 L 733.433594 629.023438 L 740.265625 647.710938 L 719.316406 661.503906 C 719.316406 661.503906 703.015625 664.214844 682.359375 667.8125 L 676.519531 663.726562 L 668.765625 665.050781 L 664.550781 670.847656 C 632.261719 676.449219 597.253906 682.328125 597.253906 682.328125 L 576.808594 675.898438 L 572.777344 670.5625 L 571.34375 662.179688 " fill-opacity="1" fill-rule="nonzero"/><path fill="#000000" d="M 709.589844 577.824219 L 709.601562 577.824219 Z M 716.667969 573.035156 C 715.464844 573.035156 714.28125 573.382812 713.25 574.058594 C 711.847656 574.972656 710.878906 576.378906 710.53125 578.027344 C 709.96875 580.6875 711.886719 590.808594 713.082031 596.414062 C 716.433594 591.761719 722.265625 583.273438 722.828125 580.609375 C 723.535156 577.222656 721.359375 573.886719 717.972656 573.171875 C 717.539062 573.082031 717.101562 573.035156 716.667969 573.035156 Z M 712.117188 600.96875 L 711.652344 598.917969 C 711.261719 597.164062 707.808594 581.628906 708.648438 577.628906 C 709.101562 575.484375 710.359375 573.644531 712.195312 572.445312 C 714.03125 571.25 716.222656 570.835938 718.371094 571.289062 C 722.796875 572.222656 725.636719 576.582031 724.707031 581.007812 C 723.863281 585.011719 714.441406 597.835938 713.367188 599.28125 L 712.117188 600.96875 " fill-opacity="1" fill-rule="nonzero"/><path fill="#000000" d="M 649.949219 612.234375 C 649.8125 612.234375 649.679688 612.203125 649.546875 612.140625 L 639.1875 607.320312 C 638.707031 607.09375 638.5 606.523438 638.726562 606.042969 C 638.953125 605.5625 639.519531 605.351562 640.007812 605.578125 L 650.355469 610.402344 C 650.839844 610.625 651.050781 611.195312 650.824219 611.679688 C 650.660156 612.027344 650.316406 612.234375 649.949219 612.234375 " fill-opacity="1" fill-rule="nonzero"/><path fill="#000000" d="M 642.867188 618.96875 C 642.730469 618.96875 642.589844 618.945312 642.460938 618.882812 L 632.105469 614.058594 C 631.621094 613.835938 631.414062 613.265625 631.640625 612.78125 C 631.863281 612.300781 632.4375 612.089844 632.917969 612.316406 L 643.269531 617.140625 C 643.753906 617.363281 643.957031 617.933594 643.738281 618.417969 C 643.574219 618.765625 643.226562 618.96875 642.867188 618.96875 " fill-opacity="1" fill-rule="nonzero"/><path fill="#000000" d="M 635.777344 625.714844 C 635.644531 625.714844 635.5 625.683594 635.371094 625.621094 L 625.015625 620.796875 C 624.535156 620.574219 624.324219 620.003906 624.554688 619.519531 C 624.773438 619.039062 625.34375 618.832031 625.828125 619.058594 L 636.183594 623.878906 C 636.664062 624.101562 636.875 624.675781 636.648438 625.15625 C 636.488281 625.503906 636.140625 625.714844 635.777344 625.714844 " fill-opacity="1" fill-rule="nonzero"/><path fill="#fed101" d="M 639.371094 188.886719 L 629.441406 253.375 L 607.902344 354.167969 C 600.457031 389.019531 601.296875 425.136719 610.359375 459.601562 L 639.371094 569.929688 L 711.992188 569.929688 L 683.742188 420.78125 L 711.980469 253.441406 L 711.992188 253.441406 L 711.992188 188.886719 L 639.371094 188.886719 " fill-opacity="1" fill-rule="nonzero"/><path fill="#000000" d="M 640.113281 568.96875 L 710.835938 568.96875 L 682.800781 420.960938 C 682.777344 420.84375 682.777344 420.734375 682.796875 420.617188 L 711.035156 253.289062 L 711.035156 189.84375 L 640.195312 189.84375 L 630.390625 253.515625 L 608.84375 354.367188 C 601.46875 388.902344 602.3125 425.203125 611.292969 459.355469 Z M 712 570.890625 L 639.375 570.890625 C 638.9375 570.890625 638.558594 570.597656 638.445312 570.175781 L 609.4375 459.847656 C 600.375 425.40625 599.523438 388.792969 606.960938 353.96875 L 628.5 253.167969 L 638.425781 188.734375 C 638.5 188.269531 638.898438 187.921875 639.375 187.921875 L 712 187.921875 C 712.527344 187.921875 712.960938 188.351562 712.960938 188.882812 L 712.960938 253.433594 C 712.960938 253.546875 712.9375 253.644531 712.90625 253.738281 L 684.71875 420.773438 L 712.9375 569.75 C 712.996094 570.03125 712.921875 570.324219 712.738281 570.539062 C 712.554688 570.761719 712.285156 570.890625 712 570.890625 " fill-opacity="1" fill-rule="nonzero"/><path fill="#fed101" d="M 675.707031 266.085938 L 682.273438 201.863281 L 610.023438 194.480469 L 608.976562 204.738281 L 496.175781 323.851562 C 480.316406 340.59375 474.160156 364.316406 479.886719 386.65625 L 511.292969 509.371094 L 581.839844 510.105469 L 564.527344 380.625 L 658.703125 264.347656 L 675.707031 266.085938 " fill-opacity="1" fill-rule="nonzero"/><path fill="#020202" d="M 620.53125 222.996094 L 711.992188 204.128906 L 711.992188 198.40625 L 620.53125 198.40625 L 620.53125 222.996094 " fill-opacity="1" fill-rule="nonzero"/><path fill="#8c7bff" d="M 790.410156 142.820312 L 582.414062 11.136719 C 570.746094 3.746094 555.285156 7.222656 547.902344 18.890625 C 540.511719 30.554688 543.980469 46.003906 555.652344 53.394531 L 609.433594 87.441406 L 609.433594 204.085938 L 718.449219 204.085938 L 718.449219 156.457031 L 763.648438 185.074219 C 775.316406 192.460938 790.769531 188.992188 798.152344 177.324219 C 805.542969 165.660156 802.074219 150.210938 790.410156 142.820312 " fill-opacity="1" fill-rule="nonzero"/><path fill="#000000" d="M 598.742188 337.050781 C 598.742188 324.710938 509.761719 314.699219 400 314.699219 C 290.238281 314.699219 201.261719 324.710938 201.261719 337.050781 C 201.261719 349.390625 290.238281 359.394531 400 359.394531 C 509.761719 359.394531 598.742188 349.390625 598.742188 337.050781 " fill-opacity="1" fill-rule="nonzero"/><path fill="#fda4ff" d="M 538.890625 468.132812 L 500.640625 551.511719 C 494.882812 551.996094 489 552.4375 483.023438 552.835938 C 480.128906 553.035156 477.203125 553.226562 474.269531 553.390625 C 473.492188 553.449219 472.726562 553.5 471.949219 553.53125 C 470.515625 553.601562 469.074219 553.683594 467.632812 553.765625 C 466.199219 553.847656 464.761719 553.929688 463.304688 553.984375 C 462 554.070312 460.667969 554.125 459.34375 554.179688 C 458.347656 554.238281 457.351562 554.289062 456.328125 554.320312 C 453.308594 554.457031 450.273438 554.59375 447.214844 554.703125 C 444.140625 554.816406 441.058594 554.910156 437.945312 554.996094 C 434.273438 555.105469 430.589844 555.1875 426.871094 555.269531 C 424.660156 555.328125 422.4375 555.359375 420.199219 555.382812 C 418.265625 555.410156 416.34375 555.4375 414.382812 555.464844 L 413.503906 555.464844 C 411.273438 555.492188 409.027344 555.523438 406.765625 555.523438 C 404.515625 555.546875 402.253906 555.546875 399.960938 555.546875 C 397.699219 555.546875 395.445312 555.546875 393.203125 555.523438 C 390.941406 555.523438 388.6875 555.492188 386.464844 555.464844 L 385.542969 555.464844 C 383.609375 555.4375 381.671875 555.410156 379.757812 555.382812 C 377.53125 555.359375 375.300781 555.328125 373.097656 555.269531 C 369.789062 555.203125 366.5 555.121094 363.230469 555.019531 C 362.816406 555.019531 362.390625 555.007812 361.972656 554.996094 C 358.851562 554.886719 355.742188 554.816406 352.660156 554.703125 C 349.625 554.59375 346.605469 554.457031 343.585938 554.320312 C 342.59375 554.289062 341.601562 554.238281 340.605469 554.179688 C 339.234375 554.125 337.851562 554.070312 336.476562 553.984375 C 335.832031 553.957031 335.210938 553.929688 334.570312 553.875 C 333.839844 553.847656 333.097656 553.820312 332.375 553.765625 C 330.914062 553.683594 329.464844 553.601562 328 553.53125 C 327.21875 553.5 326.4375 553.449219 325.679688 553.390625 C 322.722656 553.226562 319.789062 553.035156 316.902344 552.835938 C 312.058594 552.503906 307.253906 552.160156 302.539062 551.773438 C 301.464844 551.703125 300.398438 551.621094 299.332031 551.523438 L 261.085938 468.132812 C 263.144531 468.414062 265.21875 468.660156 267.3125 468.921875 C 268.914062 469.101562 270.53125 469.296875 272.171875 469.488281 C 277.121094 470.042969 282.160156 470.554688 287.296875 471.054688 C 289.628906 471.273438 291.992188 471.496094 294.351562 471.703125 C 295.449219 471.785156 296.546875 471.894531 297.648438 471.976562 C 299.28125 472.144531 300.902344 472.28125 302.539062 472.390625 C 307.253906 472.765625 312.058594 473.125 316.902344 473.457031 C 319.789062 473.652344 322.722656 473.84375 325.679688 473.996094 C 326.4375 474.050781 327.21875 474.109375 328 474.136719 C 329.464844 474.21875 330.914062 474.300781 332.375 474.382812 C 333.097656 474.441406 333.839844 474.464844 334.570312 474.492188 C 335.210938 474.550781 335.832031 474.574219 336.476562 474.605469 C 337.609375 474.675781 338.75 474.726562 339.886719 474.773438 C 340.121094 474.785156 340.371094 474.785156 340.605469 474.796875 C 341.601562 474.855469 342.59375 474.910156 343.585938 474.9375 C 346.605469 475.078125 349.625 475.199219 352.660156 475.3125 C 355.742188 475.421875 358.851562 475.503906 361.972656 475.613281 C 365.648438 475.726562 369.363281 475.808594 373.097656 475.890625 C 375.300781 475.949219 377.53125 475.972656 379.757812 476 C 381.671875 476.03125 383.609375 476.058594 385.542969 476.082031 L 386.464844 476.082031 C 388.6875 476.113281 390.941406 476.140625 393.203125 476.140625 C 395.445312 476.167969 397.699219 476.167969 399.960938 476.167969 C 402.253906 476.167969 404.515625 476.167969 406.765625 476.140625 C 409.027344 476.140625 411.273438 476.113281 413.503906 476.082031 L 414.382812 476.082031 C 416.34375 476.058594 418.265625 476.03125 420.199219 476 C 422.4375 475.972656 424.660156 475.949219 426.871094 475.890625 C 430.589844 475.808594 434.273438 475.726562 437.945312 475.613281 C 441.058594 475.53125 444.140625 475.421875 447.214844 475.3125 C 450.273438 475.199219 453.308594 475.078125 456.328125 474.9375 C 457.351562 474.910156 458.347656 474.855469 459.34375 474.796875 C 460.667969 474.746094 462 474.6875 463.304688 474.605469 C 464.761719 474.550781 466.199219 474.464844 467.632812 474.382812 C 469.074219 474.300781 470.515625 474.21875 471.949219 474.136719 C 472.726562 474.109375 473.492188 474.050781 474.269531 473.996094 C 477.203125 473.84375 480.128906 473.652344 483.023438 473.457031 C 490.699219 472.933594 498.207031 472.367188 505.539062 471.703125 C 507.917969 471.496094 510.28125 471.273438 512.621094 471.054688 C 519.46875 470.386719 526.128906 469.679688 532.617188 468.921875 C 534.734375 468.660156 536.816406 468.394531 538.890625 468.132812 " fill-opacity="1" fill-rule="nonzero"/><path fill="#fda4ff" d="M 598.742188 337.675781 L 555.113281 432.761719 C 552.441406 433.175781 549.710938 433.574219 546.960938 433.925781 C 542.289062 434.5625 537.496094 435.15625 532.621094 435.765625 C 526.128906 436.523438 519.46875 437.246094 512.621094 437.894531 C 510.285156 438.117188 507.921875 438.339844 505.542969 438.558594 C 498.207031 439.207031 490.703125 439.789062 483.023438 440.296875 C 480.128906 440.496094 477.203125 440.6875 474.269531 440.851562 C 473.488281 440.910156 472.730469 440.960938 471.949219 440.992188 C 470.519531 441.058594 469.074219 441.148438 467.632812 441.226562 C 466.199219 441.308594 464.761719 441.390625 463.304688 441.445312 C 462.003906 441.53125 460.667969 441.585938 459.34375 441.640625 C 458.347656 441.699219 457.351562 441.75 456.328125 441.78125 C 453.308594 441.914062 450.277344 442.054688 447.214844 442.164062 C 444.140625 442.277344 441.058594 442.371094 437.949219 442.453125 C 434.273438 442.5625 430.589844 442.648438 426.871094 442.738281 C 424.660156 442.785156 422.4375 442.820312 420.203125 442.847656 C 418.261719 442.871094 416.34375 442.894531 414.382812 442.925781 L 413.503906 442.925781 C 411.273438 442.953125 409.027344 442.984375 406.769531 442.984375 C 404.515625 443.007812 402.253906 443.007812 399.957031 443.007812 C 397.695312 443.007812 395.445312 443.007812 393.203125 442.984375 C 390.945312 442.984375 388.691406 442.953125 386.464844 442.925781 L 385.546875 442.925781 C 383.609375 442.894531 381.671875 442.871094 379.757812 442.847656 C 377.535156 442.820312 375.300781 442.785156 373.097656 442.738281 C 369.363281 442.648438 365.648438 442.5625 361.972656 442.453125 C 358.855469 442.34375 355.742188 442.277344 352.65625 442.164062 C 349.625 442.054688 346.605469 441.914062 343.589844 441.78125 C 342.59375 441.75 341.601562 441.699219 340.605469 441.640625 C 339.234375 441.585938 337.851562 441.53125 336.480469 441.445312 C 335.835938 441.417969 335.210938 441.390625 334.566406 441.335938 C 333.84375 441.308594 333.101562 441.277344 332.375 441.226562 C 331.605469 441.183594 330.847656 441.148438 330.085938 441.101562 C 329.394531 441.058594 328.691406 441.019531 328 440.992188 C 327.21875 440.960938 326.4375 440.910156 325.679688 440.851562 C 322.726562 440.6875 319.792969 440.496094 316.902344 440.296875 C 312.058594 439.964844 307.253906 439.625 302.539062 439.234375 C 300.902344 439.121094 299.28125 438.988281 297.648438 438.820312 C 296.546875 438.738281 295.449219 438.625 294.351562 438.558594 C 291.992188 438.339844 289.628906 438.117188 287.300781 437.894531 C 282.160156 437.394531 277.121094 436.886719 272.171875 436.332031 C 270.53125 436.136719 268.914062 435.960938 267.3125 435.765625 C 262.136719 435.128906 257.046875 434.480469 252.089844 433.789062 C 249.648438 433.464844 247.257812 433.125 244.867188 432.761719 L 201.261719 337.691406 C 204.402344 338.421875 207.644531 339.144531 210.984375 339.835938 C 211.269531 339.890625 211.566406 339.941406 211.882812 340.023438 C 214.71875 340.621094 217.621094 341.203125 220.574219 341.742188 C 223.855469 342.347656 227.214844 342.945312 230.632812 343.550781 C 232.921875 343.9375 235.246094 344.3125 237.597656 344.695312 C 238.761719 344.894531 239.957031 345.0625 241.152344 345.238281 C 242.339844 345.433594 243.554688 345.601562 244.738281 345.792969 C 247.167969 346.152344 249.609375 346.5 252.089844 346.832031 C 257.046875 347.519531 262.136719 348.171875 267.3125 348.804688 C 268.914062 348.988281 270.53125 349.179688 272.171875 349.375 C 277.121094 349.925781 282.160156 350.4375 287.300781 350.9375 C 289.628906 351.160156 291.992188 351.382812 294.351562 351.585938 C 295.449219 351.667969 296.546875 351.78125 297.648438 351.863281 C 299.28125 352.03125 300.902344 352.164062 302.539062 352.277344 C 303.105469 352.316406 303.667969 352.363281 304.242188 352.414062 C 308.398438 352.730469 312.636719 353.050781 316.902344 353.339844 C 319.792969 353.535156 322.726562 353.730469 325.679688 353.878906 C 326.4375 353.933594 327.21875 353.988281 328 354.015625 C 329.460938 354.101562 330.917969 354.1875 332.375 354.269531 C 333.101562 354.320312 333.84375 354.351562 334.566406 354.378906 C 335.210938 354.433594 335.835938 354.460938 336.480469 354.488281 C 337.851562 354.570312 339.234375 354.628906 340.605469 354.683594 C 341.601562 354.738281 342.59375 354.792969 343.589844 354.820312 C 346.605469 354.960938 349.625 355.085938 352.65625 355.191406 C 355.742188 355.304688 358.855469 355.386719 361.972656 355.5 C 365.648438 355.609375 369.363281 355.691406 373.097656 355.773438 C 375.300781 355.828125 377.535156 355.855469 379.757812 355.886719 C 381.671875 355.914062 383.609375 355.9375 385.546875 355.96875 L 386.464844 355.96875 C 388.691406 355.996094 390.945312 356.023438 393.203125 356.023438 C 395.445312 356.050781 397.695312 356.050781 399.957031 356.050781 C 402.253906 356.050781 404.515625 356.050781 406.769531 356.023438 C 409.027344 356.023438 411.273438 355.996094 413.503906 355.96875 L 414.382812 355.96875 C 416.34375 355.9375 418.261719 355.914062 420.203125 355.886719 C 422.4375 355.855469 424.660156 355.828125 426.871094 355.773438 C 430.589844 355.691406 434.273438 355.609375 437.949219 355.5 C 441.058594 355.414062 444.140625 355.304688 447.214844 355.191406 C 450.277344 355.085938 453.308594 354.960938 456.328125 354.820312 C 457.351562 354.792969 458.347656 354.738281 459.34375 354.683594 C 460.667969 354.628906 462.003906 354.570312 463.304688 354.488281 C 464.761719 354.433594 466.199219 354.351562 467.632812 354.269531 C 469.074219 354.1875 470.519531 354.101562 471.949219 354.015625 C 472.730469 353.988281 473.488281 353.933594 474.269531 353.878906 C 477.203125 353.730469 480.128906 353.535156 483.023438 353.339844 C 490.703125 352.8125 498.207031 352.25 505.542969 351.585938 C 507.921875 351.382812 510.285156 351.160156 512.621094 350.9375 C 519.46875 350.273438 526.128906 349.566406 532.621094 348.804688 C 537.496094 348.199219 542.289062 347.601562 546.960938 346.96875 C 549.730469 346.609375 552.484375 346.207031 555.183594 345.792969 C 556.398438 345.601562 557.601562 345.433594 558.777344 345.238281 C 562.378906 344.730469 565.871094 344.144531 569.3125 343.550781 C 572.726562 342.945312 576.085938 342.347656 579.378906 341.742188 C 582.339844 341.203125 585.238281 340.621094 588.070312 340.023438 C 588.367188 339.941406 588.675781 339.890625 588.96875 339.835938 C 592.316406 339.128906 595.578125 338.40625 598.742188 337.675781 " fill-opacity="1" fill-rule="nonzero"/><path fill="#fda4ff" d="M 662.546875 198.535156 L 659.621094 204.9375 L 616.003906 300.027344 C 607.890625 302.394531 598.828125 304.617188 588.96875 306.675781 C 588.671875 306.734375 588.363281 306.789062 588.066406 306.871094 C 585.234375 307.464844 582.339844 308.046875 579.375 308.597656 C 576.082031 309.195312 572.726562 309.804688 569.308594 310.402344 C 565.871094 311.007812 562.375 311.570312 558.777344 312.097656 C 557.597656 312.289062 556.398438 312.441406 555.179688 312.632812 C 552.480469 313.054688 549.730469 313.46875 546.960938 313.8125 C 542.285156 314.449219 537.492188 315.046875 532.617188 315.648438 C 526.128906 316.414062 519.464844 317.128906 512.625 317.785156 C 510.28125 318.003906 507.917969 318.222656 505.539062 318.445312 C 498.207031 319.097656 490.699219 319.675781 483.023438 320.1875 C 480.128906 320.378906 477.203125 320.578125 474.273438 320.746094 C 473.492188 320.792969 472.726562 320.851562 471.949219 320.878906 C 470.515625 320.945312 469.070312 321.03125 467.632812 321.113281 C 466.195312 321.191406 464.761719 321.277344 463.304688 321.335938 C 461.996094 321.417969 460.664062 321.472656 459.34375 321.527344 C 458.347656 321.582031 457.351562 321.640625 456.328125 321.667969 C 453.308594 321.804688 450.273438 321.945312 447.210938 322.050781 C 444.136719 322.164062 441.058594 322.257812 437.945312 322.34375 C 434.273438 322.457031 430.585938 322.539062 426.867188 322.617188 C 424.660156 322.675781 422.433594 322.703125 420.203125 322.726562 C 418.261719 322.761719 416.34375 322.785156 414.382812 322.808594 L 413.5 322.808594 C 411.273438 322.839844 409.027344 322.871094 406.761719 322.871094 C 404.511719 322.894531 402.253906 322.894531 399.957031 322.894531 C 397.695312 322.894531 395.445312 322.894531 393.203125 322.871094 C 390.941406 322.871094 388.6875 322.839844 386.460938 322.808594 L 385.542969 322.808594 C 383.609375 322.785156 381.671875 322.761719 379.757812 322.726562 C 377.53125 322.703125 375.300781 322.675781 373.097656 322.617188 C 369.359375 322.539062 365.648438 322.457031 361.96875 322.34375 C 358.851562 322.234375 355.738281 322.164062 352.65625 322.050781 C 349.625 321.945312 346.601562 321.804688 343.585938 321.667969 C 342.59375 321.640625 341.601562 321.582031 340.605469 321.527344 C 339.230469 321.472656 337.851562 321.417969 336.476562 321.335938 C 335.832031 321.308594 335.210938 321.277344 334.566406 321.226562 C 333.839844 321.191406 333.097656 321.167969 332.375 321.113281 C 330.914062 321.03125 329.460938 320.945312 327.996094 320.878906 C 327.21875 320.851562 326.4375 320.792969 325.679688 320.746094 C 322.722656 320.578125 319.789062 320.378906 316.902344 320.1875 C 312.054688 319.855469 307.253906 319.503906 302.539062 319.121094 C 300.902344 319.015625 299.28125 318.871094 297.648438 318.707031 C 296.546875 318.625 295.449219 318.515625 294.351562 318.445312 L 294.308594 318.445312 C 291.960938 318.222656 289.617188 318.003906 287.296875 317.785156 C 282.160156 317.289062 277.121094 316.773438 272.171875 316.214844 C 270.53125 316.023438 268.914062 315.847656 267.3125 315.648438 C 262.136719 315.011719 257.046875 314.367188 252.089844 313.671875 C 249.609375 313.355469 247.167969 312.996094 244.738281 312.632812 C 243.550781 312.441406 242.335938 312.289062 241.152344 312.097656 C 239.957031 311.90625 238.761719 311.738281 237.597656 311.542969 C 235.246094 311.15625 232.921875 310.785156 230.628906 310.402344 C 227.210938 309.804688 223.855469 309.195312 220.574219 308.597656 C 217.621094 308.046875 214.714844 307.464844 211.878906 306.871094 C 211.5625 306.789062 211.265625 306.734375 210.980469 306.675781 C 201.140625 304.632812 192.101562 302.40625 183.992188 300.035156 L 140.445312 205.078125 L 137.390625 198.425781 L 220.671875 198.453125 L 262.816406 198.453125 L 537.558594 198.511719 L 662.546875 198.535156 " fill-opacity="1" fill-rule="nonzero"/><path fill="#ff7dce" d="M 662.847656 196.601562 C 662.847656 199.441406 661.75 202.230469 659.617188 204.9375 C 654.738281 211.230469 644.378906 217.160156 629.59375 222.496094 C 629.449219 222.527344 629.3125 222.582031 629.175781 222.632812 C 626.972656 223.453125 624.648438 224.246094 622.242188 224.984375 C 612.609375 228.070312 601.4375 230.945312 588.964844 233.546875 C 588.671875 233.601562 588.363281 233.652344 588.066406 233.738281 C 585.234375 234.339844 582.347656 234.914062 579.371094 235.460938 C 576.089844 236.0625 572.726562 236.664062 569.3125 237.265625 C 565.871094 237.867188 562.375 238.441406 558.78125 238.957031 C 557.605469 239.148438 556.398438 239.3125 555.183594 239.507812 C 552.488281 239.914062 549.734375 240.324219 546.953125 240.679688 C 542.285156 241.3125 537.503906 241.914062 532.613281 242.515625 C 526.128906 243.28125 519.464844 243.992188 512.628906 244.648438 C 510.28125 244.863281 507.917969 245.085938 505.53125 245.304688 C 498.207031 245.960938 490.707031 246.53125 483.023438 247.054688 C 480.136719 247.242188 477.199219 247.433594 474.273438 247.601562 C 473.492188 247.65625 472.726562 247.710938 471.949219 247.734375 C 470.515625 247.820312 469.078125 247.898438 467.628906 247.984375 C 466.203125 248.066406 464.757812 248.148438 463.304688 248.199219 C 462 248.285156 460.671875 248.339844 459.34375 248.394531 C 458.347656 248.449219 457.351562 248.503906 456.332031 248.53125 C 453.300781 248.667969 450.277344 248.800781 447.207031 248.910156 C 444.144531 249.023438 441.054688 249.132812 437.945312 249.210938 C 434.277344 249.328125 430.585938 249.40625 426.871094 249.488281 C 424.660156 249.542969 422.433594 249.570312 420.207031 249.597656 C 418.273438 249.625 416.335938 249.652344 414.382812 249.679688 L 413.503906 249.679688 C 411.277344 249.707031 409.027344 249.734375 406.761719 249.734375 C 404.515625 249.761719 402.246094 249.761719 399.96875 249.761719 C 397.695312 249.761719 395.445312 249.761719 393.203125 249.734375 C 390.933594 249.734375 388.691406 249.707031 386.457031 249.679688 L 385.546875 249.679688 C 383.605469 249.652344 381.671875 249.625 379.761719 249.597656 C 377.53125 249.570312 375.304688 249.542969 373.09375 249.488281 C 369.363281 249.40625 365.652344 249.328125 361.980469 249.210938 C 358.851562 249.101562 355.746094 249.023438 352.65625 248.910156 C 349.628906 248.800781 346.605469 248.667969 343.59375 248.53125 C 342.59375 248.503906 341.601562 248.449219 340.601562 248.394531 C 339.234375 248.339844 337.847656 248.285156 336.484375 248.199219 C 335.835938 248.175781 335.210938 248.148438 334.5625 248.09375 C 333.839844 248.066406 333.097656 248.039062 332.375 247.984375 C 330.910156 247.898438 329.464844 247.820312 328 247.734375 C 327.21875 247.710938 326.4375 247.65625 325.675781 247.601562 C 322.722656 247.433594 319.796875 247.242188 316.902344 247.054688 C 312.058594 246.726562 307.25 246.367188 302.539062 245.988281 C 300.898438 245.878906 299.277344 245.742188 297.65625 245.574219 C 296.542969 245.496094 295.449219 245.386719 294.355469 245.304688 C 291.988281 245.085938 289.625 244.863281 287.300781 244.648438 C 282.160156 244.152344 277.121094 243.636719 272.175781 243.089844 C 270.535156 242.894531 268.914062 242.703125 267.3125 242.515625 C 262.132812 241.882812 257.054688 241.226562 252.089844 240.546875 C 249.609375 240.214844 247.164062 239.863281 244.746094 239.507812 C 243.550781 239.3125 242.339844 239.148438 241.148438 238.957031 C 239.957031 238.765625 238.765625 238.601562 237.59375 238.410156 C 235.246094 238.03125 232.921875 237.644531 230.636719 237.265625 C 227.21875 236.664062 223.855469 236.0625 220.574219 235.460938 C 217.621094 234.914062 214.710938 234.339844 211.875 233.738281 C 211.566406 233.652344 211.273438 233.601562 210.980469 233.546875 C 198.511719 230.945312 187.335938 228.070312 177.703125 224.984375 C 175.300781 224.246094 172.976562 223.453125 170.765625 222.632812 C 170.632812 222.582031 170.496094 222.527344 170.355469 222.496094 C 155.683594 217.191406 145.386719 211.308594 140.441406 205.078125 C 138.234375 202.3125 137.101562 199.496094 137.101562 196.601562 C 137.101562 187.765625 147.769531 179.421875 166.644531 172.09375 C 210.453125 155.085938 298.496094 143.464844 399.980469 143.464844 C 545.160156 143.464844 662.847656 167.253906 662.847656 196.601562 " fill-opacity="1" fill-rule="nonzero"/><path fill="#000000" d="M 635.523438 220.210938 C 592.507812 237.730469 503.183594 249.75 399.96875 249.75 C 296.75 249.75 207.433594 237.730469 164.410156 220.210938 C 207.433594 202.691406 296.75 190.671875 399.96875 190.671875 C 503.183594 190.671875 592.507812 202.691406 635.523438 220.210938 " fill-opacity="1" fill-rule="nonzero"/><path fill="#ff7dce" d="M 210.980469 306.675781 C 201.140625 304.628906 192.101562 302.402344 183.988281 300.039062 L 140.445312 205.078125 C 138.230469 202.3125 137.105469 199.507812 137.105469 196.601562 C 137.105469 187.765625 147.765625 179.429688 166.644531 172.101562 L 220.671875 198.453125 L 230.421875 203.199219 L 265.277344 220.207031 C 266.117188 222.777344 268.535156 230.808594 272.171875 243.0625 C 272.171875 243.0625 272.171875 243.0625 272.171875 243.085938 C 277.40625 260.730469 285.152344 287.113281 294.308594 318.445312 C 291.960938 318.222656 289.617188 318.003906 287.296875 317.785156 C 282.160156 317.285156 277.121094 316.769531 272.171875 316.21875 C 270.53125 316.027344 268.914062 315.847656 267.3125 315.652344 C 262.136719 315.015625 257.046875 314.367188 252.089844 313.671875 C 249.605469 313.355469 247.167969 312.996094 244.738281 312.632812 C 243.550781 312.445312 242.335938 312.292969 241.152344 312.097656 C 239.957031 311.902344 238.761719 311.734375 237.597656 311.542969 C 235.246094 311.160156 232.921875 310.785156 230.628906 310.398438 C 227.210938 309.804688 223.855469 309.195312 220.574219 308.597656 C 217.617188 308.046875 214.714844 307.46875 211.878906 306.871094 C 211.5625 306.792969 211.265625 306.734375 210.980469 306.675781 " fill-opacity="1" fill-rule="nonzero"/><path fill="#ff7dce" d="M 267.3125 435.765625 C 262.136719 435.128906 257.046875 434.480469 252.089844 433.789062 C 249.648438 433.46875 247.257812 433.125 244.867188 432.761719 L 201.257812 337.691406 C 204.402344 338.421875 207.644531 339.144531 210.984375 339.835938 C 211.265625 339.886719 211.566406 339.945312 211.878906 340.027344 C 214.714844 340.621094 217.621094 341.203125 220.574219 341.738281 C 223.855469 342.351562 227.210938 342.941406 230.632812 343.550781 C 232.921875 343.941406 235.246094 344.3125 237.597656 344.699219 C 238.761719 344.894531 239.957031 345.0625 241.152344 345.238281 C 242.339844 345.433594 243.554688 345.601562 244.738281 345.792969 C 247.167969 346.152344 249.609375 346.5 252.089844 346.832031 C 257.046875 347.519531 262.136719 348.171875 267.3125 348.804688 C 268.914062 348.988281 270.53125 349.179688 272.171875 349.375 C 277.121094 349.925781 282.160156 350.441406 287.296875 350.9375 C 289.628906 351.160156 291.992188 351.382812 294.351562 351.585938 C 295.449219 351.667969 296.546875 351.78125 297.648438 351.863281 C 299.28125 352.03125 300.902344 352.164062 302.539062 352.277344 C 303.105469 352.316406 303.667969 352.363281 304.242188 352.414062 C 312.363281 380.253906 321.171875 410.488281 330.082031 441.101562 C 329.394531 441.0625 328.691406 441.019531 328 440.992188 C 327.21875 440.960938 326.4375 440.910156 325.679688 440.855469 C 322.722656 440.6875 319.789062 440.496094 316.902344 440.300781 C 312.058594 439.96875 307.253906 439.625 302.539062 439.238281 C 300.902344 439.121094 299.28125 438.988281 297.648438 438.824219 C 296.546875 438.738281 295.449219 438.625 294.351562 438.558594 C 291.992188 438.339844 289.628906 438.117188 287.296875 437.894531 C 282.160156 437.398438 277.121094 436.886719 272.171875 436.332031 C 270.53125 436.136719 268.914062 435.957031 267.3125 435.765625 " fill-opacity="1" fill-rule="nonzero"/><path fill="#ff7dce" d="M 316.902344 552.835938 C 312.058594 552.503906 307.253906 552.160156 302.539062 551.773438 C 301.464844 551.703125 300.398438 551.621094 299.332031 551.523438 L 261.085938 468.132812 C 263.144531 468.414062 265.21875 468.660156 267.3125 468.921875 C 268.914062 469.101562 270.53125 469.296875 272.171875 469.488281 C 277.121094 470.042969 282.160156 470.554688 287.296875 471.054688 C 289.628906 471.273438 291.992188 471.496094 294.351562 471.703125 C 295.449219 471.785156 296.546875 471.894531 297.648438 471.976562 C 299.28125 472.144531 300.902344 472.28125 302.539062 472.390625 C 307.253906 472.765625 312.058594 473.125 316.902344 473.457031 C 319.789062 473.652344 322.722656 473.84375 325.679688 473.996094 C 326.4375 474.050781 327.21875 474.109375 328 474.136719 C 329.464844 474.21875 330.914062 474.300781 332.375 474.382812 C 333.097656 474.441406 333.839844 474.464844 334.570312 474.492188 C 335.210938 474.550781 335.832031 474.574219 336.476562 474.605469 C 337.609375 474.675781 338.75 474.726562 339.886719 474.773438 C 347.898438 502.300781 355.820312 529.554688 363.230469 555.019531 C 362.816406 555.019531 362.390625 555.007812 361.972656 554.996094 C 358.851562 554.886719 355.742188 554.816406 352.660156 554.703125 C 349.625 554.59375 346.605469 554.457031 343.585938 554.320312 C 342.59375 554.289062 341.601562 554.238281 340.605469 554.179688 C 339.234375 554.125 337.851562 554.070312 336.476562 553.984375 C 335.832031 553.957031 335.210938 553.929688 334.570312 553.875 C 333.839844 553.847656 333.097656 553.820312 332.375 553.765625 C 330.914062 553.683594 329.464844 553.601562 328 553.53125 C 327.21875 553.5 326.4375 553.449219 325.679688 553.390625 C 322.722656 553.226562 319.789062 553.035156 316.902344 552.835938 " fill-opacity="1" fill-rule="nonzero"/><path fill="#000000" d="M 635.523438 220.210938 C 592.507812 237.730469 503.183594 249.75 399.96875 249.75 C 296.75 249.75 207.433594 237.730469 164.410156 220.210938 C 207.433594 202.691406 296.75 190.671875 399.96875 190.671875 C 503.183594 190.671875 592.507812 202.691406 635.523438 220.210938 " fill-opacity="1" fill-rule="nonzero"/><path fill="#000000" d="M 539.214844 467.054688 C 539.214844 458.144531 476.886719 450.921875 400 450.921875 C 323.113281 450.921875 260.785156 458.144531 260.785156 467.054688 C 260.785156 475.964844 323.113281 483.191406 400 483.191406 C 476.886719 483.191406 539.214844 475.964844 539.214844 467.054688 " fill-opacity="1" fill-rule="nonzero"/><path fill="#955b50" d="M 473.460938 148.136719 L 463.675781 144.039062 L 454.144531 163.234375 C 452.738281 166.058594 453.789062 169.269531 456.492188 170.398438 C 459.195312 171.53125 462.523438 170.15625 463.921875 167.332031 L 473.460938 148.136719 " fill-opacity="1" fill-rule="nonzero"/><path fill="#955b50" d="M 466.199219 138.882812 L 456.414062 134.78125 L 446.882812 153.976562 C 445.476562 156.800781 446.527344 160.011719 449.234375 161.144531 C 451.929688 162.273438 455.257812 160.902344 456.660156 158.078125 L 466.199219 138.882812 " fill-opacity="1" fill-rule="nonzero"/><path fill="#955b50" d="M 457.289062 133.0625 L 448.554688 129.402344 L 440.039062 146.546875 C 438.785156 149.070312 439.730469 151.9375 442.136719 152.945312 C 444.554688 153.953125 447.523438 152.730469 448.777344 150.207031 L 457.289062 133.0625 " fill-opacity="1" fill-rule="nonzero"/><path fill="#955b50" d="M 479.328125 160.144531 L 471.921875 152.742188 L 441.960938 182.699219 C 439.921875 184.742188 439.921875 188.050781 441.960938 190.09375 L 441.96875 190.101562 C 444.015625 192.140625 447.328125 192.140625 449.367188 190.101562 L 479.328125 160.144531 " fill-opacity="1" fill-rule="nonzero"/><path fill="#955b50" d="M 506.628906 135.242188 L 485.972656 140.863281 L 485 177.539062 C 484.679688 180.585938 486.871094 183.066406 489.902344 183.09375 C 492.929688 183.113281 495.640625 180.664062 495.964844 177.621094 L 497.707031 161.089844 L 506.628906 135.242188 " fill-opacity="1" fill-rule="nonzero"/><path fill="#955b50" d="M 506.625 134.332031 L 528.335938 107.117188 L 497.316406 83.117188 L 477.683594 107.066406 L 448.59375 129.363281 L 479.324219 160.144531 L 506.625 134.332031 " fill-opacity="1" fill-rule="nonzero"/><path fill="#020202" d="M 528.335938 107.117188 L 497.316406 83.117188 L 489.648438 91.675781 L 513.417969 125.96875 L 528.335938 107.117188 " fill-opacity="1" fill-rule="nonzero"/><path fill="#000000" d="M 454.476562 169.851562 C 454.246094 169.851562 454.019531 169.769531 453.832031 169.605469 C 451.121094 167.15625 452.746094 163.882812 453.28125 162.808594 L 461.75 145.675781 C 461.984375 145.203125 462.558594 145.003906 463.035156 145.242188 C 463.515625 145.476562 463.710938 146.054688 463.472656 146.527344 L 455.003906 163.660156 C 453.679688 166.335938 454.28125 167.414062 455.121094 168.175781 C 455.515625 168.53125 455.550781 169.140625 455.191406 169.535156 C 455.003906 169.742188 454.738281 169.851562 454.476562 169.851562 " fill-opacity="1" fill-rule="nonzero"/><path fill="#000000" d="M 451.210938 162.503906 C 450.414062 162.503906 449.617188 162.347656 448.859375 162.035156 C 447.371094 161.410156 446.242188 160.238281 445.679688 158.722656 C 445.070312 157.09375 445.195312 155.210938 446.015625 153.550781 L 454.527344 136.464844 C 454.761719 135.992188 455.34375 135.796875 455.8125 136.035156 C 456.296875 136.269531 456.484375 136.847656 456.25 137.320312 L 447.738281 154.40625 C 447.152344 155.589844 447.058594 156.917969 447.480469 158.050781 C 447.855469 159.058594 448.609375 159.84375 449.601562 160.261719 C 451.835938 161.195312 454.621094 160.027344 455.804688 157.652344 L 461.746094 145.675781 C 461.980469 145.203125 462.5625 145.007812 463.035156 145.242188 C 463.515625 145.480469 463.710938 146.058594 463.472656 146.53125 L 457.523438 158.507812 C 456.289062 160.988281 453.75 162.503906 451.210938 162.503906 " fill-opacity="1" fill-rule="nonzero"/><path fill="#000000" d="M 443.910156 154.253906 C 443.179688 154.253906 442.457031 154.117188 441.765625 153.832031 C 440.414062 153.261719 439.386719 152.191406 438.878906 150.816406 C 438.320312 149.332031 438.433594 147.617188 439.179688 146.113281 L 447.695312 128.972656 C 447.933594 128.496094 448.503906 128.300781 448.984375 128.539062 C 449.457031 128.773438 449.652344 129.351562 449.417969 129.832031 L 440.902344 146.972656 C 440.390625 148 440.308594 149.15625 440.675781 150.140625 C 441.003906 151.015625 441.65625 151.695312 442.511719 152.054688 C 444.460938 152.875 446.886719 151.851562 447.917969 149.773438 L 454.53125 136.46875 C 454.765625 135.992188 455.339844 135.796875 455.816406 136.035156 C 456.289062 136.269531 456.484375 136.847656 456.25 137.320312 L 449.636719 150.628906 C 448.519531 152.886719 446.214844 154.253906 443.910156 154.253906 " fill-opacity="1" fill-rule="nonzero"/><path fill="#000000" d="M 445.667969 192.589844 C 444.082031 192.589844 442.492188 191.988281 441.285156 190.78125 C 438.871094 188.359375 438.871094 184.429688 441.285156 182.015625 L 470.582031 151.433594 C 470.949219 151.046875 471.5625 151.035156 471.941406 151.402344 C 472.328125 151.769531 472.339844 152.382812 471.976562 152.761719 L 442.660156 183.359375 C 440.980469 185.042969 440.980469 187.753906 442.644531 189.417969 C 444.3125 191.082031 447.019531 191.082031 448.6875 189.417969 L 478.648438 159.46875 C 479.019531 159.089844 479.632812 159.089844 480.007812 159.46875 C 480.386719 159.839844 480.386719 160.453125 480.007812 160.828125 L 450.046875 190.78125 C 448.839844 191.988281 447.253906 192.589844 445.667969 192.589844 " fill-opacity="1" fill-rule="nonzero"/><path fill="#000000" d="M 489.941406 184.054688 C 489.925781 184.054688 489.910156 184.054688 489.894531 184.054688 C 488.164062 184.039062 486.609375 183.351562 485.5 182.113281 C 484.375 180.855469 483.859375 179.195312 484.042969 177.441406 L 484.652344 154.386719 C 484.667969 153.863281 485.09375 153.453125 485.613281 153.453125 C 485.625 153.453125 485.628906 153.453125 485.636719 153.453125 C 486.171875 153.46875 486.589844 153.910156 486.578125 154.4375 L 485.960938 177.5625 C 485.828125 178.851562 486.171875 179.984375 486.933594 180.828125 C 487.671875 181.660156 488.730469 182.125 489.910156 182.128906 C 492.464844 182.1875 494.742188 180.078125 495.003906 177.523438 L 496.746094 160.992188 C 496.757812 160.921875 496.769531 160.855469 496.792969 160.789062 L 505.714844 134.035156 C 505.753906 133.925781 505.808594 133.824219 505.882812 133.730469 L 524.042969 111.324219 C 524.382812 110.914062 524.984375 110.847656 525.402344 111.179688 C 525.8125 111.515625 525.878906 112.121094 525.542969 112.535156 L 507.488281 134.808594 L 498.652344 161.296875 L 496.917969 177.722656 C 496.554688 181.21875 493.429688 184.054688 489.941406 184.054688 " fill-opacity="1" fill-rule="nonzero"/><path fill="#000000" d="M 479.328125 161.109375 C 479.0625 161.109375 478.804688 161.003906 478.617188 160.796875 C 478.253906 160.402344 478.285156 159.796875 478.675781 159.4375 L 491.015625 148.183594 C 491.410156 147.824219 492.015625 147.855469 492.375 148.246094 C 492.734375 148.636719 492.703125 149.242188 492.3125 149.601562 L 479.972656 160.855469 C 479.789062 161.027344 479.558594 161.109375 479.328125 161.109375 " fill-opacity="1" fill-rule="nonzero"/><path fill="#000000" d="M 448.59375 130.324219 C 448.304688 130.324219 448.019531 130.191406 447.828125 129.949219 C 447.507812 129.523438 447.59375 128.921875 448.011719 128.59375 L 477.019531 106.367188 L 492.816406 87.21875 C 493.15625 86.808594 493.761719 86.75 494.171875 87.085938 C 494.578125 87.425781 494.636719 88.03125 494.304688 88.4375 L 478.429688 107.675781 C 478.386719 107.734375 478.335938 107.78125 478.277344 107.832031 L 449.179688 130.121094 C 449.007812 130.257812 448.796875 130.324219 448.59375 130.324219 " fill-opacity="1" fill-rule="nonzero"/><path fill="#8c7bff" d="M 485.125 88.230469 L 524.128906 117.953125 L 581.226562 45.695312 L 551.546875 14.375 L 485.125 88.230469 " fill-opacity="1" fill-rule="nonzero"/><path fill="#000000" d="M 524.125 118.921875 C 523.914062 118.921875 523.703125 118.847656 523.523438 118.710938 C 523.109375 118.382812 523.042969 117.777344 523.371094 117.359375 L 580.464844 45.097656 C 580.792969 44.683594 581.402344 44.613281 581.8125 44.941406 C 582.234375 45.273438 582.304688 45.875 581.976562 46.292969 L 524.875 118.554688 C 524.6875 118.792969 524.40625 118.921875 524.125 118.921875 " fill-opacity="1" fill-rule="nonzero"/><path fill="#8c7bff" d="M 777.832031 188.886719 L 684.726562 188.886719 L 684.726562 138.339844 L 777.832031 138.339844 L 777.832031 188.886719 " fill-opacity="1" fill-rule="nonzero"/><path fill="#000000" d="M 718.503906 189.851562 L 684.726562 189.851562 C 684.195312 189.851562 683.761719 189.417969 683.761719 188.886719 L 683.761719 138.339844 C 683.761719 137.808594 684.195312 137.375 684.726562 137.375 L 765.976562 137.375 C 766.511719 137.375 766.941406 137.808594 766.941406 138.339844 C 766.941406 138.867188 766.511719 139.296875 765.976562 139.296875 L 685.683594 139.296875 L 685.683594 187.929688 L 718.503906 187.929688 C 719.039062 187.929688 719.46875 188.359375 719.46875 188.886719 C 719.46875 189.417969 719.039062 189.851562 718.503906 189.851562 " fill-opacity="1" fill-rule="nonzero"/><path fill="#955b50" d="M 670.980469 146.789062 C 666.960938 146.789062 664.628906 141.246094 655.558594 141.246094 L 633.695312 141.246094 C 627.203125 141.246094 621 143.957031 616.597656 148.71875 L 614.292969 151.207031 C 612.507812 153.136719 612.113281 155.925781 613.199219 158.230469 L 613.246094 158.261719 L 610.644531 161.0625 C 608.667969 163.203125 608.402344 166.398438 609.964844 168.824219 L 608.410156 170.503906 C 606.351562 172.726562 606.148438 176.089844 607.917969 178.546875 L 609.464844 180.6875 C 608.089844 182.695312 608.078125 185.375 609.53125 187.398438 C 611.714844 190.421875 616.140625 190.660156 618.628906 187.878906 L 621.394531 184.796875 C 622.714844 183.320312 624.605469 182.480469 626.582031 182.480469 L 684.730469 182.480469 L 684.730469 146.789062 L 670.980469 146.789062 " fill-opacity="1" fill-rule="nonzero"/><path fill="#020202" d="M 672.011719 146.789062 L 684.730469 182.480469 L 684.730469 146.789062 L 672.011719 146.789062 " fill-opacity="1" fill-rule="nonzero"/><path fill="#000000" d="M 609.96875 169.789062 C 609.648438 169.789062 609.34375 169.632812 609.15625 169.34375 C 607.347656 166.535156 607.671875 162.859375 609.945312 160.40625 L 614.015625 156.007812 C 617.464844 152.277344 622.359375 150.140625 627.449219 150.140625 L 638.65625 150.140625 C 639.183594 150.140625 639.613281 150.570312 639.613281 151.101562 C 639.613281 151.632812 639.183594 152.0625 638.65625 152.0625 L 627.449219 152.0625 C 622.898438 152.0625 618.515625 153.976562 615.421875 157.316406 L 611.351562 161.714844 C 609.675781 163.523438 609.4375 166.238281 610.773438 168.304688 C 611.0625 168.75 610.9375 169.347656 610.484375 169.632812 C 610.324219 169.738281 610.148438 169.789062 609.96875 169.789062 " fill-opacity="1" fill-rule="nonzero"/><path fill="#000000" d="M 609.476562 181.671875 C 609.175781 181.671875 608.878906 181.53125 608.691406 181.269531 L 607.136719 179.109375 C 605.109375 176.296875 605.351562 172.394531 607.707031 169.855469 L 612.589844 164.574219 C 615.523438 161.402344 619.691406 159.582031 624.011719 159.582031 L 638.753906 159.582031 C 639.285156 159.582031 639.71875 160.011719 639.71875 160.542969 C 639.71875 161.078125 639.285156 161.507812 638.753906 161.507812 L 624.011719 161.507812 C 620.226562 161.507812 616.574219 163.097656 614.003906 165.878906 L 609.117188 171.160156 C 607.378906 173.035156 607.203125 175.90625 608.695312 177.988281 L 610.253906 180.148438 C 610.5625 180.578125 610.464844 181.179688 610.035156 181.488281 C 609.867188 181.613281 609.667969 181.671875 609.476562 181.671875 " fill-opacity="1" fill-rule="nonzero"/><path fill="#000000" d="M 685.6875 183.4375 L 649.527344 183.4375 C 648.992188 183.4375 648.5625 183.007812 648.5625 182.480469 C 648.5625 181.949219 648.992188 181.515625 649.527344 181.515625 L 683.765625 181.515625 L 683.765625 147.753906 L 670.976562 147.753906 C 669.089844 147.753906 667.605469 146.773438 665.90625 145.640625 C 663.59375 144.113281 660.714844 142.207031 655.554688 142.207031 L 633.691406 142.207031 C 627.488281 142.207031 621.515625 144.820312 617.304688 149.371094 L 615 151.859375 C 613.496094 153.484375 613.132812 155.820312 614.070312 157.824219 C 614.292969 158.304688 614.089844 158.878906 613.609375 159.101562 C 613.132812 159.328125 612.558594 159.121094 612.328125 158.640625 C 611.054688 155.929688 611.546875 152.753906 613.585938 150.554688 L 615.894531 148.0625 C 620.464844 143.121094 626.957031 140.285156 633.691406 140.285156 L 655.554688 140.285156 C 661.296875 140.285156 664.570312 142.457031 666.960938 144.039062 C 668.46875 145.039062 669.660156 145.828125 670.976562 145.828125 L 685.6875 145.828125 L 685.6875 183.4375 " fill-opacity="1" fill-rule="nonzero"/><path fill="#000000" d="M 614.28125 190.789062 C 614.160156 190.789062 614.039062 190.78125 613.914062 190.777344 C 611.84375 190.667969 609.964844 189.640625 608.753906 187.957031 C 606.863281 185.34375 607.089844 181.722656 609.28125 179.355469 L 614.375 173.851562 C 617.363281 170.628906 621.59375 168.777344 625.992188 168.777344 L 638.257812 168.777344 C 638.789062 168.777344 639.21875 169.207031 639.21875 169.738281 C 639.21875 170.273438 638.789062 170.699219 638.257812 170.699219 L 625.992188 170.699219 C 622.132812 170.699219 618.414062 172.324219 615.785156 175.15625 L 610.695312 180.664062 C 609.121094 182.363281 608.957031 184.953125 610.3125 186.835938 C 611.183594 188.042969 612.53125 188.773438 614.011719 188.855469 C 615.492188 188.9375 616.925781 188.347656 617.910156 187.238281 L 620.679688 184.15625 C 622.179688 182.476562 624.332031 181.515625 626.582031 181.515625 L 661.617188 181.515625 C 667.390625 181.515625 672.785156 178.660156 676.03125 173.871094 C 676.328125 173.433594 676.925781 173.316406 677.363281 173.613281 C 677.800781 173.917969 677.914062 174.507812 677.621094 174.953125 C 674.015625 180.265625 668.03125 183.441406 661.617188 183.441406 L 626.582031 183.441406 C 624.878906 183.441406 623.25 184.167969 622.109375 185.4375 L 619.347656 188.523438 C 618.039062 189.972656 616.214844 190.789062 614.28125 190.789062 " fill-opacity="1" fill-rule="nonzero"/><path fill="#000000" d="M 649.058594 13.03125 C 655.359375 19.285156 655.398438 29.464844 649.148438 35.765625 C 642.886719 42.070312 632.710938 42.109375 626.402344 35.851562 C 620.097656 29.59375 620.058594 19.417969 626.324219 13.113281 C 632.578125 6.8125 642.753906 6.773438 649.058594 13.03125 " fill-opacity="1" fill-rule="nonzero"/><path fill="#000000" d="M 706.574219 12.8125 C 712.882812 19.074219 712.914062 29.253906 706.660156 35.554688 C 700.402344 41.859375 690.21875 41.894531 683.921875 35.640625 C 677.613281 29.378906 677.578125 19.207031 683.832031 12.902344 C 690.09375 6.601562 700.273438 6.558594 706.574219 12.8125 " fill-opacity="1" fill-rule="nonzero"/><path fill="#955b50" d="M 685.578125 81.144531 L 658.964844 96.066406 L 658.902344 43.789062 L 685.523438 43.640625 L 685.578125 81.144531 " fill-opacity="1" fill-rule="nonzero"/><path fill="#000000" d="M 685.578125 53.726562 L 685.523438 43.640625 L 658.902344 43.789062 L 659.027344 66.058594 C 661.433594 66.523438 666.226562 67.101562 671.714844 65.257812 C 680.304688 62.375 684.492188 55.625 685.578125 53.726562 " fill-opacity="1" fill-rule="nonzero"/><path fill="#955b50" d="M 689.566406 36.304688 C 689.640625 49.199219 680.234375 59.703125 668.566406 59.765625 C 656.902344 59.832031 647.386719 49.433594 647.316406 36.539062 C 647.242188 23.644531 656.644531 13.140625 668.308594 13.074219 C 679.976562 13.011719 689.496094 23.410156 689.566406 36.304688 " fill-opacity="1" fill-rule="nonzero"/><path fill="#000000" d="M 668.460938 60.730469 C 662.582031 60.730469 657.058594 58.222656 652.882812 53.664062 C 648.703125 49.101562 646.386719 43.023438 646.351562 36.546875 C 646.277344 23.144531 656.121094 12.1875 668.304688 12.117188 C 668.339844 12.117188 668.378906 12.117188 668.414062 12.117188 C 676.101562 12.117188 683.347656 16.609375 687.34375 23.867188 C 687.59375 24.332031 687.429688 24.910156 686.957031 25.167969 C 686.496094 25.429688 685.90625 25.257812 685.65625 24.792969 C 681.925781 18.015625 675.464844 14.023438 668.316406 14.039062 C 657.195312 14.101562 648.207031 24.195312 648.273438 36.535156 C 648.308594 42.535156 650.449219 48.152344 654.304688 52.367188 C 658.109375 56.523438 663.128906 58.808594 668.460938 58.808594 C 668.496094 58.808594 668.527344 58.808594 668.5625 58.808594 C 674.96875 58.773438 678.910156 57.761719 684 52.132812 C 684.351562 51.734375 684.964844 51.707031 685.355469 52.0625 C 685.746094 52.417969 685.78125 53.027344 685.425781 53.421875 C 679.882812 59.550781 675.40625 60.691406 668.574219 60.730469 C 668.535156 60.730469 668.496094 60.730469 668.460938 60.730469 " fill-opacity="1" fill-rule="nonzero"/><path fill="#000000" d="M 668.308594 13.074219 C 679.976562 13.011719 695.09375 23.984375 690.289062 37.003906 C 689.886719 38.089844 689.496094 38.605469 689.355469 39.71875 L 670.066406 22.492188 L 648.160156 29.855469 C 650.707031 20.203125 658.742188 13.132812 668.308594 13.074219 " fill-opacity="1" fill-rule="nonzero"/><path fill="#ffffff" d="M 673.109375 50.113281 C 671.003906 51.183594 668.558594 51.625 666.054688 51.1875 C 660.46875 50.230469 656.558594 45.351562 656.636719 39.859375 L 673.109375 50.113281 " fill-opacity="1" fill-rule="nonzero"/><path fill="#000000" d="M 343.367188 688.261719 C 370.699219 707.160156 377.578125 744.671875 358.75 772.035156 C 339.921875 799.410156 302.5 806.273438 275.175781 787.375 C 247.851562 768.476562 240.964844 730.964844 259.796875 703.597656 C 278.625 676.226562 316.046875 669.363281 343.367188 688.261719 " fill-opacity="1" fill-rule="nonzero"/><path fill="#4ada85" d="M 338.15625 691.78125 C 365.480469 710.679688 372.367188 748.1875 353.535156 775.554688 C 334.703125 802.925781 297.285156 809.792969 269.960938 790.894531 C 242.632812 771.996094 235.746094 734.484375 254.578125 707.117188 C 273.410156 679.746094 310.828125 672.878906 338.15625 691.78125 " fill-opacity="1" fill-rule="nonzero"/><path fill="#ffffff" d="M 325.597656 771.164062 L 319.925781 764.78125 C 315.425781 768.667969 310.15625 771.425781 306.394531 772.269531 L 301.347656 762.570312 C 305.425781 761.550781 310.488281 759.363281 314.683594 755.394531 C 318.355469 751.914062 319.558594 748.054688 317.175781 745.363281 C 314.910156 742.808594 311.40625 743.148438 305.144531 745.984375 C 296.09375 750.097656 288.398438 751.195312 282.609375 744.671875 C 277.359375 738.753906 277.242188 730.332031 282.890625 722.386719 L 277.222656 716 L 283.542969 710.015625 L 288.796875 715.929688 C 293.296875 712.042969 297.035156 710.238281 300.117188 709.296875 L 304.992188 718.667969 C 302.660156 719.511719 298.316406 720.777344 293.671875 725.171875 C 289.480469 729.140625 289.796875 732.304688 291.46875 734.1875 C 293.4375 736.40625 296.949219 735.683594 304.34375 732.640625 C 314.523438 728.199219 320.902344 728.964844 326.273438 735.019531 C 331.585938 741 332.058594 749.957031 325.832031 758.328125 L 331.917969 765.179688 L 325.597656 771.164062 " fill-opacity="1" fill-rule="nonzero"/><path fill="#000000" d="M 185.539062 636.757812 C 212.863281 655.65625 219.75 693.164062 200.917969 720.535156 C 182.085938 747.90625 144.671875 754.769531 117.34375 735.871094 C 90.019531 716.972656 83.132812 679.460938 101.964844 652.09375 C 120.796875 624.722656 158.210938 617.859375 185.539062 636.757812 " fill-opacity="1" fill-rule="nonzero"/><path fill="#4ada85" d="M 180.320312 640.273438 C 207.648438 659.171875 214.53125 696.683594 195.703125 724.054688 C 176.871094 751.421875 139.453125 758.285156 112.125 739.386719 C 84.800781 720.488281 77.917969 682.980469 96.746094 655.613281 C 115.578125 628.242188 152.996094 621.375 180.320312 640.273438 " fill-opacity="1" fill-rule="nonzero"/><path fill="#ffffff" d="M 134.320312 724.003906 L 136.167969 715.664062 C 130.378906 714.300781 125.054688 711.652344 122.164062 709.101562 L 127.058594 699.324219 C 130.277344 702.03125 135.019531 704.84375 140.695312 705.910156 C 145.667969 706.847656 149.503906 705.558594 150.28125 702.046875 C 151.019531 698.710938 148.691406 696.082031 142.71875 692.667969 C 134.078125 687.75 128.675781 682.167969 130.5625 673.652344 C 132.273438 665.933594 139.027344 660.894531 148.777344 660.808594 L 150.625 652.46875 L 159.179688 654.078125 L 157.46875 661.800781 C 163.261719 663.164062 166.917969 665.132812 169.484375 667.078125 L 164.757812 676.519531 C 162.703125 675.125 159.132812 672.355469 152.847656 671.171875 C 147.171875 670.105469 144.796875 672.21875 144.25 674.671875 C 143.609375 677.570312 146.253906 679.988281 153.054688 684.191406 C 162.625 689.832031 165.746094 695.445312 163.996094 703.347656 C 162.265625 711.15625 155.289062 716.792969 144.859375 716.65625 L 142.878906 725.609375 L 134.320312 724.003906 " fill-opacity="1" fill-rule="nonzero"/><path fill="#000000" d="M 273.375 570.101562 C 293.671875 584.140625 298.789062 612 284.800781 632.328125 C 270.8125 652.664062 243.015625 657.761719 222.71875 643.722656 C 202.425781 629.683594 197.308594 601.824219 211.296875 581.496094 C 225.285156 561.160156 253.078125 556.0625 273.375 570.101562 " fill-opacity="1" fill-rule="nonzero"/><path fill="#4ada85" d="M 269.5 572.710938 C 289.796875 586.75 294.914062 614.613281 280.921875 634.945312 C 266.9375 655.273438 239.144531 660.371094 218.847656 646.332031 C 198.546875 632.296875 193.433594 604.433594 207.421875 584.105469 C 221.410156 563.777344 249.203125 558.675781 269.5 572.710938 " fill-opacity="1" fill-rule="nonzero"/><path fill="#ffffff" d="M 242.992188 636.460938 L 242.570312 630.132812 C 238.15625 630.367188 233.808594 629.589844 231.21875 628.375 L 232.664062 620.386719 C 235.523438 621.648438 239.492188 622.65625 243.761719 622.234375 C 247.503906 621.863281 249.964844 620.148438 249.789062 617.480469 C 249.621094 614.949219 247.410156 613.554688 242.441406 612.375 C 235.253906 610.671875 230.238281 607.816406 229.808594 601.351562 C 229.414062 595.492188 233.179688 590.492188 240.109375 588.394531 L 239.6875 582.066406 L 246.121094 581.429688 L 246.515625 587.292969 C 250.925781 587.054688 253.945312 587.699219 256.183594 588.546875 L 254.78125 596.261719 C 253.023438 595.699219 249.902344 594.464844 245.175781 594.9375 C 240.90625 595.359375 239.652344 597.359375 239.777344 599.226562 C 239.921875 601.425781 242.316406 602.59375 248.039062 604.171875 C 256.039062 606.199219 259.4375 609.550781 259.835938 615.542969 C 260.234375 621.476562 256.433594 626.949219 248.972656 629.027344 L 249.425781 635.824219 L 242.992188 636.460938 " fill-opacity="1" fill-rule="nonzero"/><path fill="#fed101" d="M 79.050781 82.851562 C 90.691406 84.300781 99.910156 93.519531 101.359375 105.15625 L 166.785156 105.15625 C 165.132812 57.457031 126.761719 19.085938 79.050781 17.4375 L 79.050781 82.851562 " fill-opacity="1" fill-rule="nonzero"/><path fill="#fda4ff" d="M 130.5 153.152344 C 140.242188 141.484375 146.296875 126.625 146.859375 110.371094 L 96.027344 110.371094 C 95.617188 113.648438 94.414062 116.679688 92.617188 119.261719 L 130.5 153.152344 " fill-opacity="1" fill-rule="nonzero"/><path fill="#fcb503" d="M 63.070312 92.835938 C 65.992188 90.285156 69.664062 88.566406 73.714844 88.066406 L 73.714844 37.238281 C 54.660156 37.894531 37.519531 46.097656 25.1875 58.945312 L 63.070312 92.835938 " fill-opacity="1" fill-rule="nonzero"/><path fill="#8c7bff" d="M 89.292969 122.964844 C 85.789062 126.011719 81.214844 127.855469 76.207031 127.855469 C 71.96875 127.855469 68.046875 126.535156 64.816406 124.289062 L 30.921875 162.167969 C 43.191406 172.410156 58.976562 178.574219 76.207031 178.574219 C 96.234375 178.574219 114.316406 170.238281 127.179688 156.859375 L 89.292969 122.964844 " fill-opacity="1" fill-rule="nonzero"/><path fill="#ffffff" d="M 27.210938 158.851562 L 61.113281 120.964844 C 58.070312 117.457031 56.222656 112.886719 56.222656 107.882812 C 56.222656 103.671875 57.527344 99.765625 59.753906 96.546875 L 21.867188 62.65625 C 11.648438 74.914062 5.5 90.675781 5.5 107.882812 C 5.5 127.90625 13.832031 145.988281 27.210938 158.851562 " fill-opacity="1" fill-rule="nonzero"/><g clip-path="url(#24434fe7c9)"><path fill="#000000" d="M 21.972656 64.042969 C 11.964844 76.410156 6.460938 91.933594 6.460938 107.878906 C 6.460938 126.695312 13.808594 144.261719 27.167969 157.464844 L 59.839844 120.945312 C 56.882812 117.242188 55.261719 112.636719 55.261719 107.878906 C 55.261719 103.902344 56.375 100.058594 58.496094 96.714844 Z M 27.214844 159.8125 C 26.964844 159.8125 26.726562 159.714844 26.546875 159.546875 C 12.355469 145.898438 4.539062 127.550781 4.539062 107.878906 C 4.539062 91.152344 10.429688 74.878906 21.125 62.042969 C 21.292969 61.839844 21.535156 61.714844 21.796875 61.699219 C 22.054688 61.683594 22.3125 61.765625 22.507812 61.941406 L 60.398438 95.835938 C 60.757812 96.152344 60.820312 96.695312 60.546875 97.09375 C 58.347656 100.273438 57.183594 104.007812 57.183594 107.878906 C 57.183594 112.457031 58.839844 116.875 61.835938 120.332031 C 62.152344 120.699219 62.152344 121.25 61.828125 121.605469 L 27.929688 159.492188 C 27.753906 159.6875 27.511719 159.800781 27.25 159.8125 C 27.238281 159.8125 27.226562 159.8125 27.214844 159.8125 " fill-opacity="1" fill-rule="nonzero"/></g><path fill="#4ada85" d="M 295.265625 222.777344 L 213.5625 164.40625 C 187.75 137.195312 196.675781 92.636719 230.976562 77.46875 C 265.273438 62.296875 304.257812 85.664062 307.027344 123.066406 L 295.265625 222.777344 " fill-opacity="1" fill-rule="nonzero"/><path fill="#ffffff" d="M 283.238281 114.070312 C 290.609375 130.726562 283.078125 150.203125 266.417969 157.574219 C 249.757812 164.945312 230.277344 157.414062 222.90625 140.753906 C 215.539062 124.097656 223.070312 104.617188 239.730469 97.25 C 256.390625 89.882812 275.867188 97.414062 283.238281 114.070312 " fill-opacity="1" fill-rule="nonzero"/><path fill="#ffffff" d="M 408.003906 219.320312 C 399.035156 239.132812 375.695312 247.921875 355.886719 238.949219 C 336.070312 229.984375 327.28125 206.652344 336.253906 186.84375 C 345.222656 167.03125 368.550781 158.238281 388.367188 167.210938 C 408.183594 176.175781 416.972656 199.507812 408.003906 219.320312 " fill-opacity="1" fill-rule="nonzero"/><path fill="#ffffff" d="M 385.804688 209.277344 L 369.242188 186.183594 L 357.519531 212.070312 L 385.804688 209.277344 " fill-opacity="1" fill-rule="nonzero"/><path fill="#000000" d="M 369.429688 188.09375 L 359.085938 210.949219 L 384.050781 208.480469 Z M 357.519531 213.027344 C 357.210938 213.027344 356.921875 212.882812 356.742188 212.632812 C 356.539062 212.351562 356.503906 211.984375 356.640625 211.671875 L 368.363281 185.78125 C 368.507812 185.472656 368.804688 185.257812 369.144531 185.226562 C 369.5 185.1875 369.824219 185.34375 370.019531 185.617188 L 386.589844 208.714844 C 386.785156 208.992188 386.824219 209.355469 386.679688 209.667969 C 386.535156 209.984375 386.242188 210.199219 385.902344 210.230469 L 357.617188 213.023438 C 357.582031 213.027344 357.550781 213.027344 357.519531 213.027344 " fill-opacity="1" fill-rule="nonzero"/><path fill="#fed101" d="M 422.257812 54.734375 C 427.398438 32.542969 413.578125 10.382812 391.382812 5.242188 C 369.492188 0.167969 347.84375 13.222656 342.164062 34.960938 C 338.757812 47.972656 341.953125 61.074219 349.585938 70.835938 C 353.480469 75.820312 354.78125 82.351562 353.351562 88.515625 C 351.074219 98.328125 357.191406 108.128906 367.003906 110.402344 C 376.820312 112.675781 386.621094 106.566406 388.894531 96.75 C 390.347656 90.492188 394.5625 85.246094 400.324219 82.398438 C 411.019531 77.113281 419.347656 67.261719 422.257812 54.734375 " fill-opacity="1" fill-rule="nonzero"/><path fill="#ffffff" d="M 364.371094 121.882812 L 364.320312 121.871094 C 353.796875 119.433594 347.246094 108.933594 349.6875 98.410156 L 351.886719 88.914062 L 390.039062 97.757812 L 387.835938 107.25 C 385.394531 117.773438 374.890625 124.324219 364.371094 121.882812 " fill-opacity="1" fill-rule="nonzero"/><path fill="#000000" d="M 352.605469 90.066406 L 350.621094 98.628906 C 348.308594 108.613281 354.550781 118.621094 364.539062 120.9375 L 364.371094 121.886719 L 364.585938 120.949219 C 374.578125 123.265625 384.585938 117.023438 386.902344 107.039062 L 388.882812 98.476562 Z M 368.789062 123.355469 C 367.257812 123.355469 365.707031 123.1875 364.152344 122.820312 L 364.101562 122.8125 C 353.082031 120.257812 346.195312 109.214844 348.75 98.195312 L 350.949219 88.703125 C 351.007812 88.449219 351.160156 88.238281 351.378906 88.097656 C 351.59375 87.964844 351.859375 87.921875 352.105469 87.976562 L 390.253906 96.820312 C 390.769531 96.941406 391.09375 97.457031 390.976562 97.976562 L 388.777344 107.472656 C 386.574219 116.9375 378.117188 123.355469 368.789062 123.355469 " fill-opacity="1" fill-rule="nonzero"/><path fill="#000000" d="M 363.507812 90.625 L 379.648438 94.363281 L 396.554688 50.324219 L 393.335938 50.195312 C 393.136719 50.191406 392.945312 50.117188 392.789062 49.996094 L 389.855469 47.75 L 385.957031 48.429688 C 385.703125 48.472656 385.441406 48.410156 385.234375 48.261719 L 381.933594 45.894531 L 377.382812 46.457031 C 377.15625 46.484375 376.929688 46.429688 376.738281 46.308594 L 372.96875 43.8125 L 368.890625 44.476562 C 368.699219 44.503906 368.5 44.476562 368.324219 44.394531 L 366.109375 43.332031 Z M 380.25 96.449219 C 380.175781 96.449219 380.101562 96.445312 380.03125 96.429688 L 362.289062 92.316406 C 361.828125 92.210938 361.515625 91.792969 361.542969 91.324219 L 364.269531 41.785156 C 364.289062 41.464844 364.464844 41.171875 364.742188 41.011719 C 365.019531 40.851562 365.355469 40.832031 365.648438 40.972656 L 368.882812 42.527344 L 373.03125 41.855469 C 373.273438 41.816406 373.515625 41.875 373.714844 42 L 377.5 44.503906 L 382.074219 43.9375 C 382.3125 43.910156 382.550781 43.972656 382.75 44.109375 L 386.027344 46.464844 L 389.9375 45.777344 C 390.203125 45.734375 390.472656 45.800781 390.691406 45.960938 L 393.714844 48.289062 L 397.972656 48.457031 C 398.28125 48.464844 398.566406 48.628906 398.734375 48.890625 C 398.90625 49.144531 398.945312 49.472656 398.828125 49.761719 L 381.148438 95.839844 C 381 96.210938 380.636719 96.449219 380.25 96.449219 " fill-opacity="1" fill-rule="nonzero"/></svg>